<svg xmlns="http://www.w3.org/2000/svg" xmlns:xlink="http://www.w3.org/1999/xlink" width="40" zoomAndPan="magnify" viewBox="0 0 30 30.000001" height="40" preserveAspectRatio="xMidYMid meet" version="1.0"><defs><filter x="0%" y="0%" width="100%" height="100%" id="bfcada1fd7"><feColorMatrix values="0 0 0 0 1 0 0 0 0 1 0 0 0 0 1 0 0 0 1 0" color-interpolation-filters="sRGB"/></filter><g/><clipPath id="05406160d9"><path d="M 0.484375 0 L 29.515625 0 L 29.515625 29.03125 L 0.484375 29.03125 Z M 0.484375 0 " clip-rule="nonzero"/></clipPath><mask id="922ecababc"><g filter="url(#bfcada1fd7)"><rect x="-3" width="36" fill="#000000" y="-3" height="36.000001" fill-opacity="0.8"/></g></mask><clipPath id="cc68341611"><path d="M 0.484375 0 L 29.515625 0 L 29.515625 29.03125 L 0.484375 29.03125 Z M 0.484375 0 " clip-rule="nonzero"/></clipPath><clipPath id="7622205bcc"><path d="M 2.660156 0 L 27.339844 0 C 28.542969 0 29.515625 0.976562 29.515625 2.175781 L 29.515625 26.855469 C 29.515625 28.058594 28.542969 29.03125 27.339844 29.03125 L 2.660156 29.03125 C 1.457031 29.03125 0.484375 28.058594 0.484375 26.855469 L 0.484375 2.175781 C 0.484375 0.976562 1.457031 0 2.660156 0 Z M 2.660156 0 " clip-rule="nonzero"/></clipPath><clipPath id="febef4b3bf"><path d="M 0.484375 0 L 29.515625 0 L 29.515625 29.03125 L 0.484375 29.03125 Z M 0.484375 0 " clip-rule="nonzero"/></clipPath><clipPath id="af5cdb3c88"><path d="M 2.660156 0 L 27.339844 0 C 28.542969 0 29.515625 0.976562 29.515625 2.175781 L 29.515625 26.855469 C 29.515625 28.058594 28.542969 29.03125 27.339844 29.03125 L 2.660156 29.03125 C 1.457031 29.03125 0.484375 28.058594 0.484375 26.855469 L 0.484375 2.175781 C 0.484375 0.976562 1.457031 0 2.660156 0 Z M 2.660156 0 " clip-rule="nonzero"/></clipPath><clipPath id="d9c47128b5"><rect x="0" width="30" y="0" height="30"/></clipPath><clipPath id="7be43eb8e4"><rect x="0" width="30" y="0" height="30"/></clipPath><clipPath id="a6d3a15911"><path d="M 3 0 L 27 0 L 27 29.03125 L 3 29.03125 Z M 3 0 " clip-rule="nonzero"/></clipPath><clipPath id="1db402b18a"><rect x="0" width="24" y="0" height="30"/></clipPath></defs><g clip-path="url(#05406160d9)"><path fill="#ffffff" d="M 0.484375 0 L 29.515625 0 L 29.515625 29.03125 L 0.484375 29.03125 Z M 0.484375 0 " fill-opacity="1" fill-rule="nonzero"/><path fill="#ffffff" d="M 0.484375 0 L 29.515625 0 L 29.515625 29.03125 L 0.484375 29.03125 Z M 0.484375 0 " fill-opacity="1" fill-rule="nonzero"/><g mask="url(#922ecababc)"><g transform="matrix(1, 0, 0, 1, 0, 0.000000000000005692)"><g clip-path="url(#7be43eb8e4)"><g clip-path="url(#cc68341611)"><g clip-path="url(#7622205bcc)"><g transform="matrix(1, 0, 0, 1, 0, 0.000000000000005692)"><g clip-path="url(#d9c47128b5)"><g clip-path="url(#febef4b3bf)"><g clip-path="url(#af5cdb3c88)"><path fill="#d9d9d9" d="M 0.484375 0 L 29.515625 0 L 29.515625 29.03125 L 0.484375 29.03125 Z M 0.484375 0 " fill-opacity="1" fill-rule="nonzero"/></g></g></g></g></g></g></g></g></g></g><g clip-path="url(#a6d3a15911)"><g transform="matrix(1, 0, 0, 1, 3, 0.000000000000005692)"><g clip-path="url(#1db402b18a)"><g fill="#ffffff" fill-opacity="1"><g transform="translate(0.698057, 23.651643)"><g><path d="M 9.75 -19.96875 C 11.195312 -19.96875 12.394531 -19.644531 13.34375 -19 C 14.300781 -18.351562 15.019531 -17.519531 15.5 -16.5 C 15.988281 -15.488281 16.234375 -14.421875 16.234375 -13.296875 C 16.234375 -12.191406 15.988281 -11.128906 15.5 -10.109375 C 15.019531 -9.097656 14.300781 -8.265625 13.34375 -7.609375 C 12.394531 -6.960938 11.195312 -6.640625 9.75 -6.640625 L 5.359375 -6.640625 L 5.359375 0 L 2.453125 0 L 2.453125 -19.96875 Z M 9.75 -9.5 C 10.570312 -9.5 11.25 -9.679688 11.78125 -10.046875 C 12.3125 -10.421875 12.707031 -10.894531 12.96875 -11.46875 C 13.238281 -12.039062 13.375 -12.640625 13.375 -13.265625 C 13.375 -13.910156 13.238281 -14.519531 12.96875 -15.09375 C 12.707031 -15.664062 12.3125 -16.132812 11.78125 -16.5 C 11.25 -16.875 10.570312 -17.0625 9.75 -17.0625 L 5.359375 -17.0625 L 5.359375 -9.5 Z M 9.75 -9.5 "/></g></g></g><g fill="#ffffff" fill-opacity="1"><g transform="translate(17.64778, 23.651643)"><g><path d="M 2.859375 -3.421875 C 3.390625 -3.421875 3.820312 -3.257812 4.15625 -2.9375 C 4.488281 -2.613281 4.65625 -2.1875 4.65625 -1.65625 C 4.65625 -1.238281 4.488281 -0.84375 4.15625 -0.46875 C 3.820312 -0.101562 3.390625 0.078125 2.859375 0.078125 C 2.378906 0.078125 1.972656 -0.101562 1.640625 -0.46875 C 1.304688 -0.84375 1.140625 -1.238281 1.140625 -1.65625 C 1.140625 -2.1875 1.304688 -2.613281 1.640625 -2.9375 C 1.972656 -3.257812 2.378906 -3.421875 2.859375 -3.421875 Z M 2.859375 -3.421875 "/></g></g></g></g></g></g></svg>